<svg width="88" height="88" viewBox="0 0 88 88" fill="none" xmlns="http://www.w3.org/2000/svg">
<mask id="mask0_8_679" style="mask-type:alpha" maskUnits="userSpaceOnUse" x="0" y="0" width="88" height="88">
<path fill-rule="evenodd" clip-rule="evenodd" d="M0.000305176 1.57002C0.000305176 0.702923 0.703228 0 1.57033 0H84.9385C85.8056 0 86.5085 0.702923 86.5085 1.57002V51.3397C86.5085 52.2068 85.8056 52.9097 84.9385 52.9097C84.0714 52.9097 83.3685 52.2068 83.3685 51.3397V3.14004H3.14035V62.4084H41.2919C42.159 62.4084 42.8619 63.1113 42.8619 63.9784C42.8619 64.8455 42.159 65.5484 41.2919 65.5484H1.57033C0.703228 65.5484 0.000305176 64.8455 0.000305176 63.9784V1.57002Z" fill="#333333"/>
<path fill-rule="evenodd" clip-rule="evenodd" d="M39.0026 33.4565C39.7313 33.9264 39.9412 34.8981 39.4713 35.6268L30.2081 49.9925C29.9451 50.4004 29.5082 50.6638 29.0246 50.7058C28.541 50.7478 28.0652 50.5638 27.7358 50.2074L16.6757 38.2431L2.91654 61.1751C2.47042 61.9186 1.50602 62.1597 0.76249 61.7136C0.0189582 61.2675 -0.222142 60.3031 0.223977 59.5596L15.0607 34.8317C15.315 34.4079 15.7541 34.1285 16.2458 34.0778C16.7374 34.027 17.2243 34.2108 17.5598 34.5737L28.6667 46.5887L36.8323 33.9252C37.3022 33.1964 38.2738 32.9866 39.0026 33.4565Z" fill="#333333"/>
<path fill-rule="evenodd" clip-rule="evenodd" d="M19.861 12.7172C16.3059 12.7172 13.4239 15.5992 13.4239 19.1543C13.4239 22.7094 16.3059 25.5913 19.861 25.5913C23.4161 25.5913 26.2981 22.7094 26.2981 19.1543C26.2981 15.5992 23.4161 12.7172 19.861 12.7172ZM10.2839 19.1543C10.2839 13.865 14.5717 9.57713 19.861 9.57713C25.1503 9.57713 29.4382 13.865 29.4382 19.1543C29.4382 24.4436 25.1503 28.7314 19.861 28.7314C14.5717 28.7314 10.2839 24.4436 10.2839 19.1543Z" fill="#333333"/>
<path fill-rule="evenodd" clip-rule="evenodd" d="M48.7593 27.2097C49.3368 26.9623 50.0061 27.0831 50.4608 27.5166L87.5133 62.842C87.9778 63.2849 88.126 63.966 87.8875 64.5619C87.649 65.1577 87.0718 65.5484 86.4299 65.5484H73.6773L81.4328 79.0537C81.6457 79.4244 81.6982 79.8659 81.5783 80.2762C81.4583 80.6865 81.1763 81.0301 80.7972 81.2277L69.8071 86.9583C69.0434 87.3565 68.1015 87.0652 67.6961 86.3054L59.8366 71.5777L50.3078 78.5882C49.8309 78.9391 49.1972 78.9918 48.6688 78.7246C48.1405 78.4574 47.8074 77.9156 47.8074 77.3236V28.6529C47.8074 28.0247 48.1819 27.457 48.7593 27.2097ZM50.9474 32.319V74.2193L59.4372 67.9733C59.8042 67.7032 60.2706 67.606 60.715 67.7069C61.1595 67.8077 61.5381 68.0967 61.7527 68.4988L69.7342 83.4551L77.8956 79.1995L69.6037 64.7602C69.3247 64.2744 69.3258 63.6767 69.6064 63.1918C69.8871 62.7069 70.405 62.4084 70.9652 62.4084H82.5079L50.9474 32.319Z" fill="#333333"/>
</mask>
<g mask="url(#mask0_8_679)">
<rect x="-18.84" y="-15.7002" width="123.247" height="105.191" fill="url(#paint0_linear_8_679)"/>
</g>
<defs>
<linearGradient id="paint0_linear_8_679" x1="104.407" y1="-15.7002" x2="-12.3155" y2="90.1101" gradientUnits="userSpaceOnUse">
<stop stop-color="#5B21FF"/>
<stop offset="1" stop-color="#DB00FF"/>
</linearGradient>
</defs>
</svg>
