<svg width="118" height="63" viewBox="0 0 118 63" fill="none" xmlns="http://www.w3.org/2000/svg">
<mask id="mask0_8_687" style="mask-type:alpha" maskUnits="userSpaceOnUse" x="0" y="0" width="118" height="63">
<path fill-rule="evenodd" clip-rule="evenodd" d="M19.8 2C19.8 0.89543 20.6954 0 21.8 0H95.4C96.5046 0 97.4 0.89543 97.4 2V60.9C97.4 62.0046 96.5046 62.9 95.4 62.9H21.8C20.6954 62.9 19.8 62.0046 19.8 60.9V2ZM23.8 4V58.9H93.4V4H23.8Z" fill="#333333"/>
<path fill-rule="evenodd" clip-rule="evenodd" d="M28.9 31.4C28.9 30.2954 29.7954 29.4 30.9 29.4H86.3C87.4046 29.4 88.3 30.2954 88.3 31.4C88.3 32.5046 87.4046 33.4 86.3 33.4H30.9C29.7954 33.4 28.9 32.5046 28.9 31.4Z" fill="#333333"/>
<path fill-rule="evenodd" clip-rule="evenodd" d="M28.9 41.1C28.9 39.9954 29.7954 39.1 30.9 39.1H86.3C87.4046 39.1 88.3 39.9954 88.3 41.1C88.3 42.2046 87.4046 43.1 86.3 43.1H30.9C29.7954 43.1 28.9 42.2046 28.9 41.1Z" fill="#333333"/>
<path fill-rule="evenodd" clip-rule="evenodd" d="M28.9 50.8C28.9 49.6954 29.7954 48.8 30.9 48.8H53C54.1046 48.8 55 49.6954 55 50.8C55 51.9046 54.1046 52.8 53 52.8H30.9C29.7954 52.8 28.9 51.9046 28.9 50.8Z" fill="#333333"/>
<path fill-rule="evenodd" clip-rule="evenodd" d="M102.586 18.4858C103.367 17.7047 104.633 17.7047 105.414 18.4858L116.714 29.7858C117.089 30.1609 117.3 30.6696 117.3 31.2C117.3 31.7304 117.089 32.2391 116.714 32.6142L105.414 43.9142C104.633 44.6953 103.367 44.6953 102.586 43.9142C101.805 43.1332 101.805 41.8668 102.586 41.0858L112.472 31.2L102.586 21.3142C101.805 20.5332 101.805 19.2668 102.586 18.4858Z" fill="#333333"/>
<path fill-rule="evenodd" clip-rule="evenodd" d="M14.7142 18.4858C15.4953 19.2668 15.4953 20.5332 14.7142 21.3142L4.82843 31.2L14.7142 41.0858C15.4953 41.8668 15.4953 43.1332 14.7142 43.9142C13.9332 44.6953 12.6668 44.6953 11.8858 43.9142L0.585786 32.6142C0.210714 32.2391 0 31.7304 0 31.2C0 30.6696 0.210714 30.1609 0.585786 29.7858L11.8858 18.4858C12.6668 17.7047 13.9332 17.7047 14.7142 18.4858Z" fill="#333333"/>
</mask>
<g mask="url(#mask0_8_687)">
<rect x="-19" y="-29" width="155" height="133" fill="url(#paint0_linear_8_687)"/>
</g>
<defs>
<linearGradient id="paint0_linear_8_687" x1="136" y1="-29" x2="-11.5" y2="104" gradientUnits="userSpaceOnUse">
<stop stop-color="#5B21FF"/>
<stop offset="1" stop-color="#DB00FF"/>
</linearGradient>
</defs>
</svg>
